<svg width="366" height="289" fill="none" xmlns="http://www.w3.org/2000/svg"><path d="M0 17C0 11.477 4.477 7 10 7h340c5.523 0 10 4.477 10 10v262c0 5.523-4.477 10-10 10H65.24c-2.465 0-4.843-.911-6.678-2.557L29.647 260.5 3.07 234.951A10 10 0 0 1 0 227.742V17Z" fill="#909090"/><path d="M6 10C6 4.477 10.477 0 16 0h340c5.523 0 10 4.477 10 10v262c0 5.523-4.477 10-10 10H71.24c-2.465 0-4.843-.911-6.678-2.557L35.647 253.5 9.07 227.951A10 10 0 0 1 6 220.742V10Z" fill="#C4C4C4"/><circle cx="52.5" cy="240.5" r="12.5" fill="red"/><path d="M169 16a5 5 0 1 1-10 0 5 5 0 0 1 10 0Zm45 0a5 5 0 1 1-10 0 5 5 0 0 1 10 0Z" fill="red"/><path d="M253 230.5a2.5 2.5 0 0 1 2.5-2.5h75a2.5 2.5 0 1 1 0 5h-75a2.5 2.5 0 0 1-2.5-2.5Zm0 10a2.5 2.5 0 0 1 2.5-2.5h75a2.5 2.5 0 1 1 0 5h-75a2.5 2.5 0 0 1-2.5-2.5Zm0 10a2.5 2.5 0 0 1 2.5-2.5h75a2.5 2.5 0 1 1 0 5h-75a2.5 2.5 0 0 1-2.5-2.5Zm0 10a2.5 2.5 0 0 1 2.5-2.5h75a2.5 2.5 0 1 1 0 5h-75a2.5 2.5 0 0 1-2.5-2.5Z" fill="#232323"/></svg>