<svg width="460" height="177" viewBox="0 0 460 177" fill="none" xmlns="http://www.w3.org/2000/svg">
<path d="M417 0H460V42H417V0Z" fill="#BD1D1D"/>
<path d="M0 0H43V42H0V0Z" fill="#BD1D1D"/>
<path fill-rule="evenodd" clip-rule="evenodd" d="M0 156.996C0 168.043 8.95668 176.998 20.0039 176.996L259.096 176.949C263.874 176.948 268.493 175.237 272.118 172.125L343.541 110.824C347.167 107.711 351.788 106 356.567 106H440C451.046 106 460 97.0457 460 86V20C460 8.95431 451.046 0 440 0H20C8.9543 0 0 8.95431 0 20V156.996Z" fill="#BD1D1D"/>
</svg>
